# xmcd CD database file
#
# Track frame offsets:
#	183
#	34838
#	48528
#	63175
#	74255
#	87635
#	102208
#	105620
#	120705
#	137125
#	166308
#	182093
#	212125
#	251478
#	281148
#	293613
#
# Disc length: 4069 seconds
#
# Revision: 2
# Processed by: cddbd v1.5PL3 Copyright (c) Steve Scherf et al.
# Submitted via: CDex 1.51
#
DISCID=f10fe310
DTITLE=Benny Goodman - Golden Hits
DYEAR=1955
DGENRE=Jazz
TTITLE0=one o`clock jump
TTITLE1=jersey bounce
TTITLE2=fränkie and johnny
TTITLE3=stompin`at the savoy
TTITLE4=down south camp meeting
TTITLE5=jumping at the woodside
TTITLE6=let`s dance
TTITLE7=king porter stomp
TTITLE8=i found a new baby
TTITLE9=rollèm
TTITLE10=stardust
TTITLE11=thats a plenty
TTITLE12=how high is the moon
TTITLE13=seven come eleven
TTITLE14=you turned the tables on me
TTITLE15=bugle call rag
EXTD=YEAR: 1955
EXTT0=
EXTT1=
EXTT2=
EXTT3=
EXTT4=
EXTT5=
EXTT6=
EXTT7=
EXTT8=
EXTT9=
EXTT10=
EXTT11=
EXTT12=
EXTT13=
EXTT14=
EXTT15=
PLAYORDER=
